<svg xmlns="http://www.w3.org/2000/svg" viewBox="0 0 512 512">
  <rect width="512" height="512" rx="115" fill="#f97316"/>
  <ellipse cx="112" cy="290" rx="60" ry="120" fill="#c2410c" transform="rotate(-8,112,290)"/>
  <ellipse cx="400" cy="290" rx="60" ry="120" fill="#c2410c" transform="rotate(8,400,290)"/>
  <circle cx="256" cy="218" r="148" fill="#fbbf24"/>
  <ellipse cx="256" cy="318" rx="98" ry="78" fill="#fef9c3"/>
  <circle cx="196" cy="180" r="24" fill="#1e293b"/>
  <circle cx="187" cy="171" r="9" fill="white"/>
  <circle cx="316" cy="180" r="24" fill="#1e293b"/>
  <circle cx="307" cy="171" r="9" fill="white"/>
  <ellipse cx="256" cy="290" rx="34" ry="24" fill="#1e293b"/>
  <ellipse cx="243" cy="285" rx="9" ry="6" fill="#374151"/>
  <ellipse cx="269" cy="285" rx="9" ry="6" fill="#374151"/>
  <path d="M224 322 Q256 346 288 322" stroke="#1e293b" stroke-width="5" fill="none" stroke-linecap="round"/>
  <rect x="138" y="348" width="236" height="34" rx="17" fill="#0f172a"/>
  <circle cx="256" cy="400" r="30" fill="#0f172a"/>
  <text x="256" y="412" font-size="36" font-weight="900" font-family="Arial Black, Arial, sans-serif" fill="#f97316" text-anchor="middle">?</text>
</svg>
